<svg height="256" width="256" xmlns="http://www.w3.org/2000/svg" style="height: 256px; width: 256px;">
    <path d="M 0 0 L 10 0 L 10 10 L 0 10 Z" fill="#000000" transform="matrix(1,0,0,1,0,0)"></path>
    <path d="M 0 0 L 10 0 L 10 10 L 0 10 Z" fill="#000000" transform="matrix(1,0,0,1,10,0)"></path>
    <path d="M 0 0 L 11 0 L 11 10 L 0 10 Z" fill="#000000" transform="matrix(1,0,0,1,20,0)"></path>
    <path d="M 0 0 L 10 0 L 10 10 L 0 10 Z" fill="#000000" transform="matrix(1,0,0,1,31,0)"></path>
    <path d="M 0 0 L 10 0 L 10 10 L 0 10 Z" fill="#000000" transform="matrix(1,0,0,1,41,0)"></path>
    <path d="M 0 0 L 10 0 L 10 10 L 0 10 Z" fill="#000000" transform="matrix(1,0,0,1,51,0)"></path>
    <path d="M 0 0 L 11 0 L 11 10 L 0 10 Z" fill="#000000" transform="matrix(1,0,0,1,61,0)"></path>
    <path d="M 0 0 L 10 0 L 10 10 L 0 10 Z" fill="#ffffff" transform="matrix(1,0,0,1,72,0)"></path>
    <path d="M 0 0 L 10 0 L 10 10 L 0 10 Z" fill="#000000" transform="matrix(1,0,0,1,82,0)"></path>
    <path d="M 0 0 L 10 0 L 10 10 L 0 10 Z" fill="#ffffff" transform="matrix(1,0,0,1,92,0)"></path>
    <path d="M 0 0 L 11 0 L 11 10 L 0 10 Z" fill="#ffffff" transform="matrix(1,0,0,1,102,0)"></path>
    <path d="M 0 0 L 10 0 L 10 10 L 0 10 Z" fill="#000000" transform="matrix(1,0,0,1,113,0)"></path>
    <path d="M 0 0 L 10 0 L 10 10 L 0 10 Z" fill="#000000" transform="matrix(1,0,0,1,123,0)"></path>
    <path d="M 0 0 L 10 0 L 10 10 L 0 10 Z" fill="#000000" transform="matrix(1,0,0,1,133,0)"></path>
    <path d="M 0 0 L 11 0 L 11 10 L 0 10 Z" fill="#000000" transform="matrix(1,0,0,1,143,0)"></path>
    <path d="M 0 0 L 10 0 L 10 10 L 0 10 Z" fill="#ffffff" transform="matrix(1,0,0,1,154,0)"></path>
    <path d="M 0 0 L 10 0 L 10 10 L 0 10 Z" fill="#ffffff" transform="matrix(1,0,0,1,164,0)"></path>
    <path d="M 0 0 L 10 0 L 10 10 L 0 10 Z" fill="#ffffff" transform="matrix(1,0,0,1,174,0)"></path>
    <path d="M 0 0 L 11 0 L 11 10 L 0 10 Z" fill="#000000" transform="matrix(1,0,0,1,184,0)"></path>
    <path d="M 0 0 L 10 0 L 10 10 L 0 10 Z" fill="#000000" transform="matrix(1,0,0,1,195,0)"></path>
    <path d="M 0 0 L 10 0 L 10 10 L 0 10 Z" fill="#000000" transform="matrix(1,0,0,1,205,0)"></path>
    <path d="M 0 0 L 10 0 L 10 10 L 0 10 Z" fill="#000000" transform="matrix(1,0,0,1,215,0)"></path>
    <path d="M 0 0 L 11 0 L 11 10 L 0 10 Z" fill="#000000" transform="matrix(1,0,0,1,225,0)"></path>
    <path d="M 0 0 L 10 0 L 10 10 L 0 10 Z" fill="#000000" transform="matrix(1,0,0,1,236,0)"></path>
    <path d="M 0 0 L 10 0 L 10 10 L 0 10 Z" fill="#000000" transform="matrix(1,0,0,1,246,0)"></path>
    <path d="M 0 0 L 10 0 L 10 10 L 0 10 Z" fill="#000000" transform="matrix(1,0,0,1,0,10)"></path>
    <path d="M 0 0 L 10 0 L 10 10 L 0 10 Z" fill="#ffffff" transform="matrix(1,0,0,1,10,10)"></path>
    <path d="M 0 0 L 11 0 L 11 10 L 0 10 Z" fill="#ffffff" transform="matrix(1,0,0,1,20,10)"></path>
    <path d="M 0 0 L 10 0 L 10 10 L 0 10 Z" fill="#ffffff" transform="matrix(1,0,0,1,31,10)"></path>
    <path d="M 0 0 L 10 0 L 10 10 L 0 10 Z" fill="#ffffff" transform="matrix(1,0,0,1,41,10)"></path>
    <path d="M 0 0 L 10 0 L 10 10 L 0 10 Z" fill="#ffffff" transform="matrix(1,0,0,1,51,10)"></path>
    <path d="M 0 0 L 11 0 L 11 10 L 0 10 Z" fill="#000000" transform="matrix(1,0,0,1,61,10)"></path>
    <path d="M 0 0 L 10 0 L 10 10 L 0 10 Z" fill="#ffffff" transform="matrix(1,0,0,1,72,10)"></path>
    <path d="M 0 0 L 10 0 L 10 10 L 0 10 Z" fill="#000000" transform="matrix(1,0,0,1,82,10)"></path>
    <path d="M 0 0 L 10 0 L 10 10 L 0 10 Z" fill="#000000" transform="matrix(1,0,0,1,92,10)"></path>
    <path d="M 0 0 L 11 0 L 11 10 L 0 10 Z" fill="#000000" transform="matrix(1,0,0,1,102,10)"></path>
    <path d="M 0 0 L 10 0 L 10 10 L 0 10 Z" fill="#ffffff" transform="matrix(1,0,0,1,113,10)"></path>
    <path d="M 0 0 L 10 0 L 10 10 L 0 10 Z" fill="#000000" transform="matrix(1,0,0,1,123,10)"></path>
    <path d="M 0 0 L 10 0 L 10 10 L 0 10 Z" fill="#000000" transform="matrix(1,0,0,1,133,10)"></path>
    <path d="M 0 0 L 11 0 L 11 10 L 0 10 Z" fill="#ffffff" transform="matrix(1,0,0,1,143,10)"></path>
    <path d="M 0 0 L 10 0 L 10 10 L 0 10 Z" fill="#ffffff" transform="matrix(1,0,0,1,154,10)"></path>
    <path d="M 0 0 L 10 0 L 10 10 L 0 10 Z" fill="#ffffff" transform="matrix(1,0,0,1,164,10)"></path>
    <path d="M 0 0 L 10 0 L 10 10 L 0 10 Z" fill="#ffffff" transform="matrix(1,0,0,1,174,10)"></path>
    <path d="M 0 0 L 11 0 L 11 10 L 0 10 Z" fill="#000000" transform="matrix(1,0,0,1,184,10)"></path>
    <path d="M 0 0 L 10 0 L 10 10 L 0 10 Z" fill="#ffffff" transform="matrix(1,0,0,1,195,10)"></path>
    <path d="M 0 0 L 10 0 L 10 10 L 0 10 Z" fill="#ffffff" transform="matrix(1,0,0,1,205,10)"></path>
    <path d="M 0 0 L 10 0 L 10 10 L 0 10 Z" fill="#ffffff" transform="matrix(1,0,0,1,215,10)"></path>
    <path d="M 0 0 L 11 0 L 11 10 L 0 10 Z" fill="#ffffff" transform="matrix(1,0,0,1,225,10)"></path>
    <path d="M 0 0 L 10 0 L 10 10 L 0 10 Z" fill="#ffffff" transform="matrix(1,0,0,1,236,10)"></path>
    <path d="M 0 0 L 10 0 L 10 10 L 0 10 Z" fill="#000000" transform="matrix(1,0,0,1,246,10)"></path>
    <path d="M 0 0 L 10 0 L 10 11 L 0 11 Z" fill="#000000" transform="matrix(1,0,0,1,0,20)"></path>
    <path d="M 0 0 L 10 0 L 10 11 L 0 11 Z" fill="#ffffff" transform="matrix(1,0,0,1,10,20)"></path>
    <path d="M 0 0 L 11 0 L 11 11 L 0 11 Z" fill="#000000" transform="matrix(1,0,0,1,20,20)"></path>
    <path d="M 0 0 L 10 0 L 10 11 L 0 11 Z" fill="#000000" transform="matrix(1,0,0,1,31,20)"></path>
    <path d="M 0 0 L 10 0 L 10 11 L 0 11 Z" fill="#000000" transform="matrix(1,0,0,1,41,20)"></path>
    <path d="M 0 0 L 10 0 L 10 11 L 0 11 Z" fill="#ffffff" transform="matrix(1,0,0,1,51,20)"></path>
    <path d="M 0 0 L 11 0 L 11 11 L 0 11 Z" fill="#000000" transform="matrix(1,0,0,1,61,20)"></path>
    <path d="M 0 0 L 10 0 L 10 11 L 0 11 Z" fill="#ffffff" transform="matrix(1,0,0,1,72,20)"></path>
    <path d="M 0 0 L 10 0 L 10 11 L 0 11 Z" fill="#ffffff" transform="matrix(1,0,0,1,82,20)"></path>
    <path d="M 0 0 L 10 0 L 10 11 L 0 11 Z" fill="#ffffff" transform="matrix(1,0,0,1,92,20)"></path>
    <path d="M 0 0 L 11 0 L 11 11 L 0 11 Z" fill="#000000" transform="matrix(1,0,0,1,102,20)"></path>
    <path d="M 0 0 L 10 0 L 10 11 L 0 11 Z" fill="#000000" transform="matrix(1,0,0,1,113,20)"></path>
    <path d="M 0 0 L 10 0 L 10 11 L 0 11 Z" fill="#000000" transform="matrix(1,0,0,1,123,20)"></path>
    <path d="M 0 0 L 10 0 L 10 11 L 0 11 Z" fill="#000000" transform="matrix(1,0,0,1,133,20)"></path>
    <path d="M 0 0 L 11 0 L 11 11 L 0 11 Z" fill="#ffffff" transform="matrix(1,0,0,1,143,20)"></path>
    <path d="M 0 0 L 10 0 L 10 11 L 0 11 Z" fill="#ffffff" transform="matrix(1,0,0,1,154,20)"></path>
    <path d="M 0 0 L 10 0 L 10 11 L 0 11 Z" fill="#ffffff" transform="matrix(1,0,0,1,164,20)"></path>
    <path d="M 0 0 L 10 0 L 10 11 L 0 11 Z" fill="#ffffff" transform="matrix(1,0,0,1,174,20)"></path>
    <path d="M 0 0 L 11 0 L 11 11 L 0 11 Z" fill="#000000" transform="matrix(1,0,0,1,184,20)"></path>
    <path d="M 0 0 L 10 0 L 10 11 L 0 11 Z" fill="#ffffff" transform="matrix(1,0,0,1,195,20)"></path>
    <path d="M 0 0 L 10 0 L 10 11 L 0 11 Z" fill="#000000" transform="matrix(1,0,0,1,205,20)"></path>
    <path d="M 0 0 L 10 0 L 10 11 L 0 11 Z" fill="#000000" transform="matrix(1,0,0,1,215,20)"></path>
    <path d="M 0 0 L 11 0 L 11 11 L 0 11 Z" fill="#000000" transform="matrix(1,0,0,1,225,20)"></path>
    <path d="M 0 0 L 10 0 L 10 11 L 0 11 Z" fill="#ffffff" transform="matrix(1,0,0,1,236,20)"></path>
    <path d="M 0 0 L 10 0 L 10 11 L 0 11 Z" fill="#000000" transform="matrix(1,0,0,1,246,20)"></path>
    <path d="M 0 0 L 10 0 L 10 10 L 0 10 Z" fill="#000000" transform="matrix(1,0,0,1,0,31)"></path>
    <path d="M 0 0 L 10 0 L 10 10 L 0 10 Z" fill="#ffffff" transform="matrix(1,0,0,1,10,31)"></path>
    <path d="M 0 0 L 11 0 L 11 10 L 0 10 Z" fill="#000000" transform="matrix(1,0,0,1,20,31)"></path>
    <path d="M 0 0 L 10 0 L 10 10 L 0 10 Z" fill="#000000" transform="matrix(1,0,0,1,31,31)"></path>
    <path d="M 0 0 L 10 0 L 10 10 L 0 10 Z" fill="#000000" transform="matrix(1,0,0,1,41,31)"></path>
    <path d="M 0 0 L 10 0 L 10 10 L 0 10 Z" fill="#ffffff" transform="matrix(1,0,0,1,51,31)"></path>
    <path d="M 0 0 L 11 0 L 11 10 L 0 10 Z" fill="#000000" transform="matrix(1,0,0,1,61,31)"></path>
    <path d="M 0 0 L 10 0 L 10 10 L 0 10 Z" fill="#ffffff" transform="matrix(1,0,0,1,72,31)"></path>
    <path d="M 0 0 L 10 0 L 10 10 L 0 10 Z" fill="#ffffff" transform="matrix(1,0,0,1,82,31)"></path>
    <path d="M 0 0 L 10 0 L 10 10 L 0 10 Z" fill="#ffffff" transform="matrix(1,0,0,1,92,31)"></path>
    <path d="M 0 0 L 11 0 L 11 10 L 0 10 Z" fill="#000000" transform="matrix(1,0,0,1,102,31)"></path>
    <path d="M 0 0 L 10 0 L 10 10 L 0 10 Z" fill="#ffffff" transform="matrix(1,0,0,1,113,31)"></path>
    <path d="M 0 0 L 10 0 L 10 10 L 0 10 Z" fill="#ffffff" transform="matrix(1,0,0,1,123,31)"></path>
    <path d="M 0 0 L 10 0 L 10 10 L 0 10 Z" fill="#000000" transform="matrix(1,0,0,1,133,31)"></path>
    <path d="M 0 0 L 11 0 L 11 10 L 0 10 Z" fill="#000000" transform="matrix(1,0,0,1,143,31)"></path>
    <path d="M 0 0 L 10 0 L 10 10 L 0 10 Z" fill="#000000" transform="matrix(1,0,0,1,154,31)"></path>
    <path d="M 0 0 L 10 0 L 10 10 L 0 10 Z" fill="#ffffff" transform="matrix(1,0,0,1,164,31)"></path>
    <path d="M 0 0 L 10 0 L 10 10 L 0 10 Z" fill="#ffffff" transform="matrix(1,0,0,1,174,31)"></path>
    <path d="M 0 0 L 11 0 L 11 10 L 0 10 Z" fill="#000000" transform="matrix(1,0,0,1,184,31)"></path>
    <path d="M 0 0 L 10 0 L 10 10 L 0 10 Z" fill="#ffffff" transform="matrix(1,0,0,1,195,31)"></path>
    <path d="M 0 0 L 10 0 L 10 10 L 0 10 Z" fill="#000000" transform="matrix(1,0,0,1,205,31)"></path>
    <path d="M 0 0 L 10 0 L 10 10 L 0 10 Z" fill="#000000" transform="matrix(1,0,0,1,215,31)"></path>
    <path d="M 0 0 L 11 0 L 11 10 L 0 10 Z" fill="#000000" transform="matrix(1,0,0,1,225,31)"></path>
    <path d="M 0 0 L 10 0 L 10 10 L 0 10 Z" fill="#ffffff" transform="matrix(1,0,0,1,236,31)"></path>
    <path d="M 0 0 L 10 0 L 10 10 L 0 10 Z" fill="#000000" transform="matrix(1,0,0,1,246,31)"></path>
    <path d="M 0 0 L 10 0 L 10 10 L 0 10 Z" fill="#000000" transform="matrix(1,0,0,1,0,41)"></path>
    <path d="M 0 0 L 10 0 L 10 10 L 0 10 Z" fill="#ffffff" transform="matrix(1,0,0,1,10,41)"></path>
    <path d="M 0 0 L 11 0 L 11 10 L 0 10 Z" fill="#000000" transform="matrix(1,0,0,1,20,41)"></path>
    <path d="M 0 0 L 10 0 L 10 10 L 0 10 Z" fill="#000000" transform="matrix(1,0,0,1,31,41)"></path>
    <path d="M 0 0 L 10 0 L 10 10 L 0 10 Z" fill="#000000" transform="matrix(1,0,0,1,41,41)"></path>
    <path d="M 0 0 L 10 0 L 10 10 L 0 10 Z" fill="#ffffff" transform="matrix(1,0,0,1,51,41)"></path>
    <path d="M 0 0 L 11 0 L 11 10 L 0 10 Z" fill="#000000" transform="matrix(1,0,0,1,61,41)"></path>
    <path d="M 0 0 L 10 0 L 10 10 L 0 10 Z" fill="#ffffff" transform="matrix(1,0,0,1,72,41)"></path>
    <path d="M 0 0 L 10 0 L 10 10 L 0 10 Z" fill="#000000" transform="matrix(1,0,0,1,82,41)"></path>
    <path d="M 0 0 L 10 0 L 10 10 L 0 10 Z" fill="#000000" transform="matrix(1,0,0,1,92,41)"></path>
    <path d="M 0 0 L 11 0 L 11 10 L 0 10 Z" fill="#000000" transform="matrix(1,0,0,1,102,41)"></path>
    <path d="M 0 0 L 10 0 L 10 10 L 0 10 Z" fill="#000000" transform="matrix(1,0,0,1,113,41)"></path>
    <path d="M 0 0 L 10 0 L 10 10 L 0 10 Z" fill="#ffffff" transform="matrix(1,0,0,1,123,41)"></path>
    <path d="M 0 0 L 10 0 L 10 10 L 0 10 Z" fill="#ffffff" transform="matrix(1,0,0,1,133,41)"></path>
    <path d="M 0 0 L 11 0 L 11 10 L 0 10 Z" fill="#000000" transform="matrix(1,0,0,1,143,41)"></path>
    <path d="M 0 0 L 10 0 L 10 10 L 0 10 Z" fill="#ffffff" transform="matrix(1,0,0,1,154,41)"></path>
    <path d="M 0 0 L 10 0 L 10 10 L 0 10 Z" fill="#000000" transform="matrix(1,0,0,1,164,41)"></path>
    <path d="M 0 0 L 10 0 L 10 10 L 0 10 Z" fill="#ffffff" transform="matrix(1,0,0,1,174,41)"></path>
    <path d="M 0 0 L 11 0 L 11 10 L 0 10 Z" fill="#000000" transform="matrix(1,0,0,1,184,41)"></path>
    <path d="M 0 0 L 10 0 L 10 10 L 0 10 Z" fill="#ffffff" transform="matrix(1,0,0,1,195,41)"></path>
    <path d="M 0 0 L 10 0 L 10 10 L 0 10 Z" fill="#000000" transform="matrix(1,0,0,1,205,41)"></path>
    <path d="M 0 0 L 10 0 L 10 10 L 0 10 Z" fill="#000000" transform="matrix(1,0,0,1,215,41)"></path>
    <path d="M 0 0 L 11 0 L 11 10 L 0 10 Z" fill="#000000" transform="matrix(1,0,0,1,225,41)"></path>
    <path d="M 0 0 L 10 0 L 10 10 L 0 10 Z" fill="#ffffff" transform="matrix(1,0,0,1,236,41)"></path>
    <path d="M 0 0 L 10 0 L 10 10 L 0 10 Z" fill="#000000" transform="matrix(1,0,0,1,246,41)"></path>
    <path d="M 0 0 L 10 0 L 10 10 L 0 10 Z" fill="#000000" transform="matrix(1,0,0,1,0,51)"></path>
    <path d="M 0 0 L 10 0 L 10 10 L 0 10 Z" fill="#ffffff" transform="matrix(1,0,0,1,10,51)"></path>
    <path d="M 0 0 L 11 0 L 11 10 L 0 10 Z" fill="#ffffff" transform="matrix(1,0,0,1,20,51)"></path>
    <path d="M 0 0 L 10 0 L 10 10 L 0 10 Z" fill="#ffffff" transform="matrix(1,0,0,1,31,51)"></path>
    <path d="M 0 0 L 10 0 L 10 10 L 0 10 Z" fill="#ffffff" transform="matrix(1,0,0,1,41,51)"></path>
    <path d="M 0 0 L 10 0 L 10 10 L 0 10 Z" fill="#ffffff" transform="matrix(1,0,0,1,51,51)"></path>
    <path d="M 0 0 L 11 0 L 11 10 L 0 10 Z" fill="#000000" transform="matrix(1,0,0,1,61,51)"></path>
    <path d="M 0 0 L 10 0 L 10 10 L 0 10 Z" fill="#ffffff" transform="matrix(1,0,0,1,72,51)"></path>
    <path d="M 0 0 L 10 0 L 10 10 L 0 10 Z" fill="#000000" transform="matrix(1,0,0,1,82,51)"></path>
    <path d="M 0 0 L 10 0 L 10 10 L 0 10 Z" fill="#ffffff" transform="matrix(1,0,0,1,92,51)"></path>
    <path d="M 0 0 L 11 0 L 11 10 L 0 10 Z" fill="#ffffff" transform="matrix(1,0,0,1,102,51)"></path>
    <path d="M 0 0 L 10 0 L 10 10 L 0 10 Z" fill="#000000" transform="matrix(1,0,0,1,113,51)"></path>
    <path d="M 0 0 L 10 0 L 10 10 L 0 10 Z" fill="#ffffff" transform="matrix(1,0,0,1,123,51)"></path>
    <path d="M 0 0 L 10 0 L 10 10 L 0 10 Z" fill="#000000" transform="matrix(1,0,0,1,133,51)"></path>
    <path d="M 0 0 L 11 0 L 11 10 L 0 10 Z" fill="#000000" transform="matrix(1,0,0,1,143,51)"></path>
    <path d="M 0 0 L 10 0 L 10 10 L 0 10 Z" fill="#ffffff" transform="matrix(1,0,0,1,154,51)"></path>
    <path d="M 0 0 L 10 0 L 10 10 L 0 10 Z" fill="#000000" transform="matrix(1,0,0,1,164,51)"></path>
    <path d="M 0 0 L 10 0 L 10 10 L 0 10 Z" fill="#ffffff" transform="matrix(1,0,0,1,174,51)"></path>
    <path d="M 0 0 L 11 0 L 11 10 L 0 10 Z" fill="#000000" transform="matrix(1,0,0,1,184,51)"></path>
    <path d="M 0 0 L 10 0 L 10 10 L 0 10 Z" fill="#ffffff" transform="matrix(1,0,0,1,195,51)"></path>
    <path d="M 0 0 L 10 0 L 10 10 L 0 10 Z" fill="#ffffff" transform="matrix(1,0,0,1,205,51)"></path>
    <path d="M 0 0 L 10 0 L 10 10 L 0 10 Z" fill="#ffffff" transform="matrix(1,0,0,1,215,51)"></path>
    <path d="M 0 0 L 11 0 L 11 10 L 0 10 Z" fill="#ffffff" transform="matrix(1,0,0,1,225,51)"></path>
    <path d="M 0 0 L 10 0 L 10 10 L 0 10 Z" fill="#ffffff" transform="matrix(1,0,0,1,236,51)"></path>
    <path d="M 0 0 L 10 0 L 10 10 L 0 10 Z" fill="#000000" transform="matrix(1,0,0,1,246,51)"></path>
    <path d="M 0 0 L 10 0 L 10 11 L 0 11 Z" fill="#000000" transform="matrix(1,0,0,1,0,61)"></path>
    <path d="M 0 0 L 10 0 L 10 11 L 0 11 Z" fill="#000000" transform="matrix(1,0,0,1,10,61)"></path>
    <path d="M 0 0 L 11 0 L 11 11 L 0 11 Z" fill="#000000" transform="matrix(1,0,0,1,20,61)"></path>
    <path d="M 0 0 L 10 0 L 10 11 L 0 11 Z" fill="#000000" transform="matrix(1,0,0,1,31,61)"></path>
    <path d="M 0 0 L 10 0 L 10 11 L 0 11 Z" fill="#000000" transform="matrix(1,0,0,1,41,61)"></path>
    <path d="M 0 0 L 10 0 L 10 11 L 0 11 Z" fill="#000000" transform="matrix(1,0,0,1,51,61)"></path>
    <path d="M 0 0 L 11 0 L 11 11 L 0 11 Z" fill="#000000" transform="matrix(1,0,0,1,61,61)"></path>
    <path d="M 0 0 L 10 0 L 10 11 L 0 11 Z" fill="#ffffff" transform="matrix(1,0,0,1,72,61)"></path>
    <path d="M 0 0 L 10 0 L 10 11 L 0 11 Z" fill="#000000" transform="matrix(1,0,0,1,82,61)"></path>
    <path d="M 0 0 L 10 0 L 10 11 L 0 11 Z" fill="#ffffff" transform="matrix(1,0,0,1,92,61)"></path>
    <path d="M 0 0 L 11 0 L 11 11 L 0 11 Z" fill="#000000" transform="matrix(1,0,0,1,102,61)"></path>
    <path d="M 0 0 L 10 0 L 10 11 L 0 11 Z" fill="#ffffff" transform="matrix(1,0,0,1,113,61)"></path>
    <path d="M 0 0 L 10 0 L 10 11 L 0 11 Z" fill="#000000" transform="matrix(1,0,0,1,123,61)"></path>
    <path d="M 0 0 L 10 0 L 10 11 L 0 11 Z" fill="#ffffff" transform="matrix(1,0,0,1,133,61)"></path>
    <path d="M 0 0 L 11 0 L 11 11 L 0 11 Z" fill="#000000" transform="matrix(1,0,0,1,143,61)"></path>
    <path d="M 0 0 L 10 0 L 10 11 L 0 11 Z" fill="#ffffff" transform="matrix(1,0,0,1,154,61)"></path>
    <path d="M 0 0 L 10 0 L 10 11 L 0 11 Z" fill="#000000" transform="matrix(1,0,0,1,164,61)"></path>
    <path d="M 0 0 L 10 0 L 10 11 L 0 11 Z" fill="#ffffff" transform="matrix(1,0,0,1,174,61)"></path>
    <path d="M 0 0 L 11 0 L 11 11 L 0 11 Z" fill="#000000" transform="matrix(1,0,0,1,184,61)"></path>
    <path d="M 0 0 L 10 0 L 10 11 L 0 11 Z" fill="#000000" transform="matrix(1,0,0,1,195,61)"></path>
    <path d="M 0 0 L 10 0 L 10 11 L 0 11 Z" fill="#000000" transform="matrix(1,0,0,1,205,61)"></path>
    <path d="M 0 0 L 10 0 L 10 11 L 0 11 Z" fill="#000000" transform="matrix(1,0,0,1,215,61)"></path>
    <path d="M 0 0 L 11 0 L 11 11 L 0 11 Z" fill="#000000" transform="matrix(1,0,0,1,225,61)"></path>
    <path d="M 0 0 L 10 0 L 10 11 L 0 11 Z" fill="#000000" transform="matrix(1,0,0,1,236,61)"></path>
    <path d="M 0 0 L 10 0 L 10 11 L 0 11 Z" fill="#000000" transform="matrix(1,0,0,1,246,61)"></path>
    <path d="M 0 0 L 10 0 L 10 10 L 0 10 Z" fill="#ffffff" transform="matrix(1,0,0,1,0,72)"></path>
    <path d="M 0 0 L 10 0 L 10 10 L 0 10 Z" fill="#ffffff" transform="matrix(1,0,0,1,10,72)"></path>
    <path d="M 0 0 L 11 0 L 11 10 L 0 10 Z" fill="#ffffff" transform="matrix(1,0,0,1,20,72)"></path>
    <path d="M 0 0 L 10 0 L 10 10 L 0 10 Z" fill="#ffffff" transform="matrix(1,0,0,1,31,72)"></path>
    <path d="M 0 0 L 10 0 L 10 10 L 0 10 Z" fill="#ffffff" transform="matrix(1,0,0,1,41,72)"></path>
    <path d="M 0 0 L 10 0 L 10 10 L 0 10 Z" fill="#ffffff" transform="matrix(1,0,0,1,51,72)"></path>
    <path d="M 0 0 L 11 0 L 11 10 L 0 10 Z" fill="#ffffff" transform="matrix(1,0,0,1,61,72)"></path>
    <path d="M 0 0 L 10 0 L 10 10 L 0 10 Z" fill="#ffffff" transform="matrix(1,0,0,1,72,72)"></path>
    <path d="M 0 0 L 10 0 L 10 10 L 0 10 Z" fill="#000000" transform="matrix(1,0,0,1,82,72)"></path>
    <path d="M 0 0 L 10 0 L 10 10 L 0 10 Z" fill="#ffffff" transform="matrix(1,0,0,1,92,72)"></path>
    <path d="M 0 0 L 11 0 L 11 10 L 0 10 Z" fill="#000000" transform="matrix(1,0,0,1,102,72)"></path>
    <path d="M 0 0 L 10 0 L 10 10 L 0 10 Z" fill="#000000" transform="matrix(1,0,0,1,113,72)"></path>
    <path d="M 0 0 L 10 0 L 10 10 L 0 10 Z" fill="#000000" transform="matrix(1,0,0,1,123,72)"></path>
    <path d="M 0 0 L 10 0 L 10 10 L 0 10 Z" fill="#ffffff" transform="matrix(1,0,0,1,133,72)"></path>
    <path d="M 0 0 L 11 0 L 11 10 L 0 10 Z" fill="#000000" transform="matrix(1,0,0,1,143,72)"></path>
    <path d="M 0 0 L 10 0 L 10 10 L 0 10 Z" fill="#ffffff" transform="matrix(1,0,0,1,154,72)"></path>
    <path d="M 0 0 L 10 0 L 10 10 L 0 10 Z" fill="#000000" transform="matrix(1,0,0,1,164,72)"></path>
    <path d="M 0 0 L 10 0 L 10 10 L 0 10 Z" fill="#ffffff" transform="matrix(1,0,0,1,174,72)"></path>
    <path d="M 0 0 L 11 0 L 11 10 L 0 10 Z" fill="#ffffff" transform="matrix(1,0,0,1,184,72)"></path>
    <path d="M 0 0 L 10 0 L 10 10 L 0 10 Z" fill="#ffffff" transform="matrix(1,0,0,1,195,72)"></path>
    <path d="M 0 0 L 10 0 L 10 10 L 0 10 Z" fill="#ffffff" transform="matrix(1,0,0,1,205,72)"></path>
    <path d="M 0 0 L 10 0 L 10 10 L 0 10 Z" fill="#ffffff" transform="matrix(1,0,0,1,215,72)"></path>
    <path d="M 0 0 L 11 0 L 11 10 L 0 10 Z" fill="#ffffff" transform="matrix(1,0,0,1,225,72)"></path>
    <path d="M 0 0 L 10 0 L 10 10 L 0 10 Z" fill="#ffffff" transform="matrix(1,0,0,1,236,72)"></path>
    <path d="M 0 0 L 10 0 L 10 10 L 0 10 Z" fill="#ffffff" transform="matrix(1,0,0,1,246,72)"></path>
    <path d="M 0 0 L 10 0 L 10 10 L 0 10 Z" fill="#000000" transform="matrix(1,0,0,1,0,82)"></path>
    <path d="M 0 0 L 10 0 L 10 10 L 0 10 Z" fill="#000000" transform="matrix(1,0,0,1,10,82)"></path>
    <path d="M 0 0 L 11 0 L 11 10 L 0 10 Z" fill="#000000" transform="matrix(1,0,0,1,20,82)"></path>
    <path d="M 0 0 L 10 0 L 10 10 L 0 10 Z" fill="#ffffff" transform="matrix(1,0,0,1,31,82)"></path>
    <path d="M 0 0 L 10 0 L 10 10 L 0 10 Z" fill="#ffffff" transform="matrix(1,0,0,1,41,82)"></path>
    <path d="M 0 0 L 10 0 L 10 10 L 0 10 Z" fill="#000000" transform="matrix(1,0,0,1,51,82)"></path>
    <path d="M 0 0 L 11 0 L 11 10 L 0 10 Z" fill="#000000" transform="matrix(1,0,0,1,61,82)"></path>
    <path d="M 0 0 L 10 0 L 10 10 L 0 10 Z" fill="#ffffff" transform="matrix(1,0,0,1,72,82)"></path>
    <path d="M 0 0 L 10 0 L 10 10 L 0 10 Z" fill="#000000" transform="matrix(1,0,0,1,82,82)"></path>
    <path d="M 0 0 L 10 0 L 10 10 L 0 10 Z" fill="#000000" transform="matrix(1,0,0,1,92,82)"></path>
    <path d="M 0 0 L 11 0 L 11 10 L 0 10 Z" fill="#000000" transform="matrix(1,0,0,1,102,82)"></path>
    <path d="M 0 0 L 10 0 L 10 10 L 0 10 Z" fill="#ffffff" transform="matrix(1,0,0,1,113,82)"></path>
    <path d="M 0 0 L 10 0 L 10 10 L 0 10 Z" fill="#ffffff" transform="matrix(1,0,0,1,123,82)"></path>
    <path d="M 0 0 L 10 0 L 10 10 L 0 10 Z" fill="#ffffff" transform="matrix(1,0,0,1,133,82)"></path>
    <path d="M 0 0 L 11 0 L 11 10 L 0 10 Z" fill="#ffffff" transform="matrix(1,0,0,1,143,82)"></path>
    <path d="M 0 0 L 10 0 L 10 10 L 0 10 Z" fill="#000000" transform="matrix(1,0,0,1,154,82)"></path>
    <path d="M 0 0 L 10 0 L 10 10 L 0 10 Z" fill="#000000" transform="matrix(1,0,0,1,164,82)"></path>
    <path d="M 0 0 L 10 0 L 10 10 L 0 10 Z" fill="#000000" transform="matrix(1,0,0,1,174,82)"></path>
    <path d="M 0 0 L 11 0 L 11 10 L 0 10 Z" fill="#000000" transform="matrix(1,0,0,1,184,82)"></path>
    <path d="M 0 0 L 10 0 L 10 10 L 0 10 Z" fill="#000000" transform="matrix(1,0,0,1,195,82)"></path>
    <path d="M 0 0 L 10 0 L 10 10 L 0 10 Z" fill="#000000" transform="matrix(1,0,0,1,205,82)"></path>
    <path d="M 0 0 L 10 0 L 10 10 L 0 10 Z" fill="#ffffff" transform="matrix(1,0,0,1,215,82)"></path>
    <path d="M 0 0 L 11 0 L 11 10 L 0 10 Z" fill="#ffffff" transform="matrix(1,0,0,1,225,82)"></path>
    <path d="M 0 0 L 10 0 L 10 10 L 0 10 Z" fill="#000000" transform="matrix(1,0,0,1,236,82)"></path>
    <path d="M 0 0 L 10 0 L 10 10 L 0 10 Z" fill="#000000" transform="matrix(1,0,0,1,246,82)"></path>
    <path d="M 0 0 L 10 0 L 10 10 L 0 10 Z" fill="#000000" transform="matrix(1,0,0,1,0,92)"></path>
    <path d="M 0 0 L 10 0 L 10 10 L 0 10 Z" fill="#ffffff" transform="matrix(1,0,0,1,10,92)"></path>
    <path d="M 0 0 L 11 0 L 11 10 L 0 10 Z" fill="#ffffff" transform="matrix(1,0,0,1,20,92)"></path>
    <path d="M 0 0 L 10 0 L 10 10 L 0 10 Z" fill="#000000" transform="matrix(1,0,0,1,31,92)"></path>
    <path d="M 0 0 L 10 0 L 10 10 L 0 10 Z" fill="#000000" transform="matrix(1,0,0,1,41,92)"></path>
    <path d="M 0 0 L 10 0 L 10 10 L 0 10 Z" fill="#ffffff" transform="matrix(1,0,0,1,51,92)"></path>
    <path d="M 0 0 L 11 0 L 11 10 L 0 10 Z" fill="#ffffff" transform="matrix(1,0,0,1,61,92)"></path>
    <path d="M 0 0 L 10 0 L 10 10 L 0 10 Z" fill="#ffffff" transform="matrix(1,0,0,1,72,92)"></path>
    <path d="M 0 0 L 10 0 L 10 10 L 0 10 Z" fill="#ffffff" transform="matrix(1,0,0,1,82,92)"></path>
    <path d="M 0 0 L 10 0 L 10 10 L 0 10 Z" fill="#000000" transform="matrix(1,0,0,1,92,92)"></path>
    <path d="M 0 0 L 11 0 L 11 10 L 0 10 Z" fill="#000000" transform="matrix(1,0,0,1,102,92)"></path>
    <path d="M 0 0 L 10 0 L 10 10 L 0 10 Z" fill="#ffffff" transform="matrix(1,0,0,1,113,92)"></path>
    <path d="M 0 0 L 10 0 L 10 10 L 0 10 Z" fill="#ffffff" transform="matrix(1,0,0,1,123,92)"></path>
    <path d="M 0 0 L 10 0 L 10 10 L 0 10 Z" fill="#000000" transform="matrix(1,0,0,1,133,92)"></path>
    <path d="M 0 0 L 11 0 L 11 10 L 0 10 Z" fill="#ffffff" transform="matrix(1,0,0,1,143,92)"></path>
    <path d="M 0 0 L 10 0 L 10 10 L 0 10 Z" fill="#000000" transform="matrix(1,0,0,1,154,92)"></path>
    <path d="M 0 0 L 10 0 L 10 10 L 0 10 Z" fill="#000000" transform="matrix(1,0,0,1,164,92)"></path>
    <path d="M 0 0 L 10 0 L 10 10 L 0 10 Z" fill="#ffffff" transform="matrix(1,0,0,1,174,92)"></path>
    <path d="M 0 0 L 11 0 L 11 10 L 0 10 Z" fill="#000000" transform="matrix(1,0,0,1,184,92)"></path>
    <path d="M 0 0 L 10 0 L 10 10 L 0 10 Z" fill="#000000" transform="matrix(1,0,0,1,195,92)"></path>
    <path d="M 0 0 L 10 0 L 10 10 L 0 10 Z" fill="#ffffff" transform="matrix(1,0,0,1,205,92)"></path>
    <path d="M 0 0 L 10 0 L 10 10 L 0 10 Z" fill="#000000" transform="matrix(1,0,0,1,215,92)"></path>
    <path d="M 0 0 L 11 0 L 11 10 L 0 10 Z" fill="#ffffff" transform="matrix(1,0,0,1,225,92)"></path>
    <path d="M 0 0 L 10 0 L 10 10 L 0 10 Z" fill="#000000" transform="matrix(1,0,0,1,236,92)"></path>
    <path d="M 0 0 L 10 0 L 10 10 L 0 10 Z" fill="#000000" transform="matrix(1,0,0,1,246,92)"></path>
    <path d="M 0 0 L 10 0 L 10 11 L 0 11 Z" fill="#ffffff" transform="matrix(1,0,0,1,0,102)"></path>
    <path d="M 0 0 L 10 0 L 10 11 L 0 11 Z" fill="#ffffff" transform="matrix(1,0,0,1,10,102)"></path>
    <path d="M 0 0 L 11 0 L 11 11 L 0 11 Z" fill="#ffffff" transform="matrix(1,0,0,1,20,102)"></path>
    <path d="M 0 0 L 10 0 L 10 11 L 0 11 Z" fill="#ffffff" transform="matrix(1,0,0,1,31,102)"></path>
    <path d="M 0 0 L 10 0 L 10 11 L 0 11 Z" fill="#000000" transform="matrix(1,0,0,1,41,102)"></path>
    <path d="M 0 0 L 10 0 L 10 11 L 0 11 Z" fill="#000000" transform="matrix(1,0,0,1,51,102)"></path>
    <path d="M 0 0 L 11 0 L 11 11 L 0 11 Z" fill="#000000" transform="matrix(1,0,0,1,61,102)"></path>
    <path d="M 0 0 L 10 0 L 10 11 L 0 11 Z" fill="#ffffff" transform="matrix(1,0,0,1,72,102)"></path>
    <path d="M 0 0 L 10 0 L 10 11 L 0 11 Z" fill="#ffffff" transform="matrix(1,0,0,1,82,102)"></path>
    <path d="M 0 0 L 10 0 L 10 11 L 0 11 Z" fill="#ffffff" transform="matrix(1,0,0,1,92,102)"></path>
    <path d="M 0 0 L 11 0 L 11 11 L 0 11 Z" fill="#ffffff" transform="matrix(1,0,0,1,102,102)"></path>
    <path d="M 0 0 L 10 0 L 10 11 L 0 11 Z" fill="#000000" transform="matrix(1,0,0,1,113,102)"></path>
    <path d="M 0 0 L 10 0 L 10 11 L 0 11 Z" fill="#ffffff" transform="matrix(1,0,0,1,123,102)"></path>
    <path d="M 0 0 L 10 0 L 10 11 L 0 11 Z" fill="#000000" transform="matrix(1,0,0,1,133,102)"></path>
    <path d="M 0 0 L 11 0 L 11 11 L 0 11 Z" fill="#ffffff" transform="matrix(1,0,0,1,143,102)"></path>
    <path d="M 0 0 L 10 0 L 10 11 L 0 11 Z" fill="#000000" transform="matrix(1,0,0,1,154,102)"></path>
    <path d="M 0 0 L 10 0 L 10 11 L 0 11 Z" fill="#000000" transform="matrix(1,0,0,1,164,102)"></path>
    <path d="M 0 0 L 10 0 L 10 11 L 0 11 Z" fill="#ffffff" transform="matrix(1,0,0,1,174,102)"></path>
    <path d="M 0 0 L 11 0 L 11 11 L 0 11 Z" fill="#ffffff" transform="matrix(1,0,0,1,184,102)"></path>
    <path d="M 0 0 L 10 0 L 10 11 L 0 11 Z" fill="#000000" transform="matrix(1,0,0,1,195,102)"></path>
    <path d="M 0 0 L 10 0 L 10 11 L 0 11 Z" fill="#ffffff" transform="matrix(1,0,0,1,205,102)"></path>
    <path d="M 0 0 L 10 0 L 10 11 L 0 11 Z" fill="#000000" transform="matrix(1,0,0,1,215,102)"></path>
    <path d="M 0 0 L 11 0 L 11 11 L 0 11 Z" fill="#000000" transform="matrix(1,0,0,1,225,102)"></path>
    <path d="M 0 0 L 10 0 L 10 11 L 0 11 Z" fill="#ffffff" transform="matrix(1,0,0,1,236,102)"></path>
    <path d="M 0 0 L 10 0 L 10 11 L 0 11 Z" fill="#000000" transform="matrix(1,0,0,1,246,102)"></path>
    <path d="M 0 0 L 10 0 L 10 10 L 0 10 Z" fill="#ffffff" transform="matrix(1,0,0,1,0,113)"></path>
    <path d="M 0 0 L 10 0 L 10 10 L 0 10 Z" fill="#000000" transform="matrix(1,0,0,1,10,113)"></path>
    <path d="M 0 0 L 11 0 L 11 10 L 0 10 Z" fill="#ffffff" transform="matrix(1,0,0,1,20,113)"></path>
    <path d="M 0 0 L 10 0 L 10 10 L 0 10 Z" fill="#000000" transform="matrix(1,0,0,1,31,113)"></path>
    <path d="M 0 0 L 10 0 L 10 10 L 0 10 Z" fill="#ffffff" transform="matrix(1,0,0,1,41,113)"></path>
    <path d="M 0 0 L 10 0 L 10 10 L 0 10 Z" fill="#ffffff" transform="matrix(1,0,0,1,51,113)"></path>
    <path d="M 0 0 L 11 0 L 11 10 L 0 10 Z" fill="#ffffff" transform="matrix(1,0,0,1,61,113)"></path>
    <path d="M 0 0 L 10 0 L 10 10 L 0 10 Z" fill="#000000" transform="matrix(1,0,0,1,72,113)"></path>
    <path d="M 0 0 L 10 0 L 10 10 L 0 10 Z" fill="#000000" transform="matrix(1,0,0,1,82,113)"></path>
    <path d="M 0 0 L 10 0 L 10 10 L 0 10 Z" fill="#000000" transform="matrix(1,0,0,1,92,113)"></path>
    <path d="M 0 0 L 11 0 L 11 10 L 0 10 Z" fill="#ffffff" transform="matrix(1,0,0,1,102,113)"></path>
    <path d="M 0 0 L 10 0 L 10 10 L 0 10 Z" fill="#ffffff" transform="matrix(1,0,0,1,113,113)"></path>
    <path d="M 0 0 L 10 0 L 10 10 L 0 10 Z" fill="#ffffff" transform="matrix(1,0,0,1,123,113)"></path>
    <path d="M 0 0 L 10 0 L 10 10 L 0 10 Z" fill="#ffffff" transform="matrix(1,0,0,1,133,113)"></path>
    <path d="M 0 0 L 11 0 L 11 10 L 0 10 Z" fill="#000000" transform="matrix(1,0,0,1,143,113)"></path>
    <path d="M 0 0 L 10 0 L 10 10 L 0 10 Z" fill="#ffffff" transform="matrix(1,0,0,1,154,113)"></path>
    <path d="M 0 0 L 10 0 L 10 10 L 0 10 Z" fill="#000000" transform="matrix(1,0,0,1,164,113)"></path>
    <path d="M 0 0 L 10 0 L 10 10 L 0 10 Z" fill="#ffffff" transform="matrix(1,0,0,1,174,113)"></path>
    <path d="M 0 0 L 11 0 L 11 10 L 0 10 Z" fill="#ffffff" transform="matrix(1,0,0,1,184,113)"></path>
    <path d="M 0 0 L 10 0 L 10 10 L 0 10 Z" fill="#000000" transform="matrix(1,0,0,1,195,113)"></path>
    <path d="M 0 0 L 10 0 L 10 10 L 0 10 Z" fill="#ffffff" transform="matrix(1,0,0,1,205,113)"></path>
    <path d="M 0 0 L 10 0 L 10 10 L 0 10 Z" fill="#000000" transform="matrix(1,0,0,1,215,113)"></path>
    <path d="M 0 0 L 11 0 L 11 10 L 0 10 Z" fill="#ffffff" transform="matrix(1,0,0,1,225,113)"></path>
    <path d="M 0 0 L 10 0 L 10 10 L 0 10 Z" fill="#ffffff" transform="matrix(1,0,0,1,236,113)"></path>
    <path d="M 0 0 L 10 0 L 10 10 L 0 10 Z" fill="#ffffff" transform="matrix(1,0,0,1,246,113)"></path>
    <path d="M 0 0 L 10 0 L 10 10 L 0 10 Z" fill="#000000" transform="matrix(1,0,0,1,0,123)"></path>
    <path d="M 0 0 L 10 0 L 10 10 L 0 10 Z" fill="#000000" transform="matrix(1,0,0,1,10,123)"></path>
    <path d="M 0 0 L 11 0 L 11 10 L 0 10 Z" fill="#000000" transform="matrix(1,0,0,1,20,123)"></path>
    <path d="M 0 0 L 10 0 L 10 10 L 0 10 Z" fill="#ffffff" transform="matrix(1,0,0,1,31,123)"></path>
    <path d="M 0 0 L 10 0 L 10 10 L 0 10 Z" fill="#000000" transform="matrix(1,0,0,1,41,123)"></path>
    <path d="M 0 0 L 10 0 L 10 10 L 0 10 Z" fill="#ffffff" transform="matrix(1,0,0,1,51,123)"></path>
    <path d="M 0 0 L 11 0 L 11 10 L 0 10 Z" fill="#000000" transform="matrix(1,0,0,1,61,123)"></path>
    <path d="M 0 0 L 10 0 L 10 10 L 0 10 Z" fill="#ffffff" transform="matrix(1,0,0,1,72,123)"></path>
    <path d="M 0 0 L 10 0 L 10 10 L 0 10 Z" fill="#000000" transform="matrix(1,0,0,1,82,123)"></path>
    <path d="M 0 0 L 10 0 L 10 10 L 0 10 Z" fill="#000000" transform="matrix(1,0,0,1,92,123)"></path>
    <path d="M 0 0 L 11 0 L 11 10 L 0 10 Z" fill="#ffffff" transform="matrix(1,0,0,1,102,123)"></path>
    <path d="M 0 0 L 10 0 L 10 10 L 0 10 Z" fill="#000000" transform="matrix(1,0,0,1,113,123)"></path>
    <path d="M 0 0 L 10 0 L 10 10 L 0 10 Z" fill="#000000" transform="matrix(1,0,0,1,123,123)"></path>
    <path d="M 0 0 L 10 0 L 10 10 L 0 10 Z" fill="#ffffff" transform="matrix(1,0,0,1,133,123)"></path>
    <path d="M 0 0 L 11 0 L 11 10 L 0 10 Z" fill="#000000" transform="matrix(1,0,0,1,143,123)"></path>
    <path d="M 0 0 L 10 0 L 10 10 L 0 10 Z" fill="#ffffff" transform="matrix(1,0,0,1,154,123)"></path>
    <path d="M 0 0 L 10 0 L 10 10 L 0 10 Z" fill="#000000" transform="matrix(1,0,0,1,164,123)"></path>
    <path d="M 0 0 L 10 0 L 10 10 L 0 10 Z" fill="#ffffff" transform="matrix(1,0,0,1,174,123)"></path>
    <path d="M 0 0 L 11 0 L 11 10 L 0 10 Z" fill="#000000" transform="matrix(1,0,0,1,184,123)"></path>
    <path d="M 0 0 L 10 0 L 10 10 L 0 10 Z" fill="#000000" transform="matrix(1,0,0,1,195,123)"></path>
    <path d="M 0 0 L 10 0 L 10 10 L 0 10 Z" fill="#ffffff" transform="matrix(1,0,0,1,205,123)"></path>
    <path d="M 0 0 L 10 0 L 10 10 L 0 10 Z" fill="#ffffff" transform="matrix(1,0,0,1,215,123)"></path>
    <path d="M 0 0 L 11 0 L 11 10 L 0 10 Z" fill="#ffffff" transform="matrix(1,0,0,1,225,123)"></path>
    <path d="M 0 0 L 10 0 L 10 10 L 0 10 Z" fill="#ffffff" transform="matrix(1,0,0,1,236,123)"></path>
    <path d="M 0 0 L 10 0 L 10 10 L 0 10 Z" fill="#000000" transform="matrix(1,0,0,1,246,123)"></path>
    <path d="M 0 0 L 10 0 L 10 10 L 0 10 Z" fill="#ffffff" transform="matrix(1,0,0,1,0,133)"></path>
    <path d="M 0 0 L 10 0 L 10 10 L 0 10 Z" fill="#000000" transform="matrix(1,0,0,1,10,133)"></path>
    <path d="M 0 0 L 11 0 L 11 10 L 0 10 Z" fill="#ffffff" transform="matrix(1,0,0,1,20,133)"></path>
    <path d="M 0 0 L 10 0 L 10 10 L 0 10 Z" fill="#ffffff" transform="matrix(1,0,0,1,31,133)"></path>
    <path d="M 0 0 L 10 0 L 10 10 L 0 10 Z" fill="#ffffff" transform="matrix(1,0,0,1,41,133)"></path>
    <path d="M 0 0 L 10 0 L 10 10 L 0 10 Z" fill="#000000" transform="matrix(1,0,0,1,51,133)"></path>
    <path d="M 0 0 L 11 0 L 11 10 L 0 10 Z" fill="#ffffff" transform="matrix(1,0,0,1,61,133)"></path>
    <path d="M 0 0 L 10 0 L 10 10 L 0 10 Z" fill="#000000" transform="matrix(1,0,0,1,72,133)"></path>
    <path d="M 0 0 L 10 0 L 10 10 L 0 10 Z" fill="#ffffff" transform="matrix(1,0,0,1,82,133)"></path>
    <path d="M 0 0 L 10 0 L 10 10 L 0 10 Z" fill="#000000" transform="matrix(1,0,0,1,92,133)"></path>
    <path d="M 0 0 L 11 0 L 11 10 L 0 10 Z" fill="#ffffff" transform="matrix(1,0,0,1,102,133)"></path>
    <path d="M 0 0 L 10 0 L 10 10 L 0 10 Z" fill="#ffffff" transform="matrix(1,0,0,1,113,133)"></path>
    <path d="M 0 0 L 10 0 L 10 10 L 0 10 Z" fill="#000000" transform="matrix(1,0,0,1,123,133)"></path>
    <path d="M 0 0 L 10 0 L 10 10 L 0 10 Z" fill="#000000" transform="matrix(1,0,0,1,133,133)"></path>
    <path d="M 0 0 L 11 0 L 11 10 L 0 10 Z" fill="#ffffff" transform="matrix(1,0,0,1,143,133)"></path>
    <path d="M 0 0 L 10 0 L 10 10 L 0 10 Z" fill="#000000" transform="matrix(1,0,0,1,154,133)"></path>
    <path d="M 0 0 L 10 0 L 10 10 L 0 10 Z" fill="#000000" transform="matrix(1,0,0,1,164,133)"></path>
    <path d="M 0 0 L 10 0 L 10 10 L 0 10 Z" fill="#ffffff" transform="matrix(1,0,0,1,174,133)"></path>
    <path d="M 0 0 L 11 0 L 11 10 L 0 10 Z" fill="#000000" transform="matrix(1,0,0,1,184,133)"></path>
    <path d="M 0 0 L 10 0 L 10 10 L 0 10 Z" fill="#000000" transform="matrix(1,0,0,1,195,133)"></path>
    <path d="M 0 0 L 10 0 L 10 10 L 0 10 Z" fill="#ffffff" transform="matrix(1,0,0,1,205,133)"></path>
    <path d="M 0 0 L 10 0 L 10 10 L 0 10 Z" fill="#ffffff" transform="matrix(1,0,0,1,215,133)"></path>
    <path d="M 0 0 L 11 0 L 11 10 L 0 10 Z" fill="#ffffff" transform="matrix(1,0,0,1,225,133)"></path>
    <path d="M 0 0 L 10 0 L 10 10 L 0 10 Z" fill="#000000" transform="matrix(1,0,0,1,236,133)"></path>
    <path d="M 0 0 L 10 0 L 10 10 L 0 10 Z" fill="#000000" transform="matrix(1,0,0,1,246,133)"></path>
    <path d="M 0 0 L 10 0 L 10 11 L 0 11 Z" fill="#000000" transform="matrix(1,0,0,1,0,143)"></path>
    <path d="M 0 0 L 10 0 L 10 11 L 0 11 Z" fill="#000000" transform="matrix(1,0,0,1,10,143)"></path>
    <path d="M 0 0 L 11 0 L 11 11 L 0 11 Z" fill="#ffffff" transform="matrix(1,0,0,1,20,143)"></path>
    <path d="M 0 0 L 10 0 L 10 11 L 0 11 Z" fill="#000000" transform="matrix(1,0,0,1,31,143)"></path>
    <path d="M 0 0 L 10 0 L 10 11 L 0 11 Z" fill="#000000" transform="matrix(1,0,0,1,41,143)"></path>
    <path d="M 0 0 L 10 0 L 10 11 L 0 11 Z" fill="#000000" transform="matrix(1,0,0,1,51,143)"></path>
    <path d="M 0 0 L 11 0 L 11 11 L 0 11 Z" fill="#000000" transform="matrix(1,0,0,1,61,143)"></path>
    <path d="M 0 0 L 10 0 L 10 11 L 0 11 Z" fill="#ffffff" transform="matrix(1,0,0,1,72,143)"></path>
    <path d="M 0 0 L 10 0 L 10 11 L 0 11 Z" fill="#ffffff" transform="matrix(1,0,0,1,82,143)"></path>
    <path d="M 0 0 L 10 0 L 10 11 L 0 11 Z" fill="#000000" transform="matrix(1,0,0,1,92,143)"></path>
    <path d="M 0 0 L 11 0 L 11 11 L 0 11 Z" fill="#ffffff" transform="matrix(1,0,0,1,102,143)"></path>
    <path d="M 0 0 L 10 0 L 10 11 L 0 11 Z" fill="#ffffff" transform="matrix(1,0,0,1,113,143)"></path>
    <path d="M 0 0 L 10 0 L 10 11 L 0 11 Z" fill="#000000" transform="matrix(1,0,0,1,123,143)"></path>
    <path d="M 0 0 L 10 0 L 10 11 L 0 11 Z" fill="#ffffff" transform="matrix(1,0,0,1,133,143)"></path>
    <path d="M 0 0 L 11 0 L 11 11 L 0 11 Z" fill="#ffffff" transform="matrix(1,0,0,1,143,143)"></path>
    <path d="M 0 0 L 10 0 L 10 11 L 0 11 Z" fill="#000000" transform="matrix(1,0,0,1,154,143)"></path>
    <path d="M 0 0 L 10 0 L 10 11 L 0 11 Z" fill="#000000" transform="matrix(1,0,0,1,164,143)"></path>
    <path d="M 0 0 L 10 0 L 10 11 L 0 11 Z" fill="#ffffff" transform="matrix(1,0,0,1,174,143)"></path>
    <path d="M 0 0 L 11 0 L 11 11 L 0 11 Z" fill="#ffffff" transform="matrix(1,0,0,1,184,143)"></path>
    <path d="M 0 0 L 10 0 L 10 11 L 0 11 Z" fill="#ffffff" transform="matrix(1,0,0,1,195,143)"></path>
    <path d="M 0 0 L 10 0 L 10 11 L 0 11 Z" fill="#ffffff" transform="matrix(1,0,0,1,205,143)"></path>
    <path d="M 0 0 L 10 0 L 10 11 L 0 11 Z" fill="#000000" transform="matrix(1,0,0,1,215,143)"></path>
    <path d="M 0 0 L 11 0 L 11 11 L 0 11 Z" fill="#000000" transform="matrix(1,0,0,1,225,143)"></path>
    <path d="M 0 0 L 10 0 L 10 11 L 0 11 Z" fill="#ffffff" transform="matrix(1,0,0,1,236,143)"></path>
    <path d="M 0 0 L 10 0 L 10 11 L 0 11 Z" fill="#000000" transform="matrix(1,0,0,1,246,143)"></path>
    <path d="M 0 0 L 10 0 L 10 10 L 0 10 Z" fill="#ffffff" transform="matrix(1,0,0,1,0,154)"></path>
    <path d="M 0 0 L 10 0 L 10 10 L 0 10 Z" fill="#ffffff" transform="matrix(1,0,0,1,10,154)"></path>
    <path d="M 0 0 L 11 0 L 11 10 L 0 10 Z" fill="#000000" transform="matrix(1,0,0,1,20,154)"></path>
    <path d="M 0 0 L 10 0 L 10 10 L 0 10 Z" fill="#000000" transform="matrix(1,0,0,1,31,154)"></path>
    <path d="M 0 0 L 10 0 L 10 10 L 0 10 Z" fill="#000000" transform="matrix(1,0,0,1,41,154)"></path>
    <path d="M 0 0 L 10 0 L 10 10 L 0 10 Z" fill="#ffffff" transform="matrix(1,0,0,1,51,154)"></path>
    <path d="M 0 0 L 11 0 L 11 10 L 0 10 Z" fill="#ffffff" transform="matrix(1,0,0,1,61,154)"></path>
    <path d="M 0 0 L 10 0 L 10 10 L 0 10 Z" fill="#000000" transform="matrix(1,0,0,1,72,154)"></path>
    <path d="M 0 0 L 10 0 L 10 10 L 0 10 Z" fill="#000000" transform="matrix(1,0,0,1,82,154)"></path>
    <path d="M 0 0 L 10 0 L 10 10 L 0 10 Z" fill="#000000" transform="matrix(1,0,0,1,92,154)"></path>
    <path d="M 0 0 L 11 0 L 11 10 L 0 10 Z" fill="#ffffff" transform="matrix(1,0,0,1,102,154)"></path>
    <path d="M 0 0 L 10 0 L 10 10 L 0 10 Z" fill="#000000" transform="matrix(1,0,0,1,113,154)"></path>
    <path d="M 0 0 L 10 0 L 10 10 L 0 10 Z" fill="#000000" transform="matrix(1,0,0,1,123,154)"></path>
    <path d="M 0 0 L 10 0 L 10 10 L 0 10 Z" fill="#ffffff" transform="matrix(1,0,0,1,133,154)"></path>
    <path d="M 0 0 L 11 0 L 11 10 L 0 10 Z" fill="#000000" transform="matrix(1,0,0,1,143,154)"></path>
    <path d="M 0 0 L 10 0 L 10 10 L 0 10 Z" fill="#000000" transform="matrix(1,0,0,1,154,154)"></path>
    <path d="M 0 0 L 10 0 L 10 10 L 0 10 Z" fill="#ffffff" transform="matrix(1,0,0,1,164,154)"></path>
    <path d="M 0 0 L 10 0 L 10 10 L 0 10 Z" fill="#000000" transform="matrix(1,0,0,1,174,154)"></path>
    <path d="M 0 0 L 11 0 L 11 10 L 0 10 Z" fill="#000000" transform="matrix(1,0,0,1,184,154)"></path>
    <path d="M 0 0 L 10 0 L 10 10 L 0 10 Z" fill="#000000" transform="matrix(1,0,0,1,195,154)"></path>
    <path d="M 0 0 L 10 0 L 10 10 L 0 10 Z" fill="#000000" transform="matrix(1,0,0,1,205,154)"></path>
    <path d="M 0 0 L 10 0 L 10 10 L 0 10 Z" fill="#000000" transform="matrix(1,0,0,1,215,154)"></path>
    <path d="M 0 0 L 11 0 L 11 10 L 0 10 Z" fill="#ffffff" transform="matrix(1,0,0,1,225,154)"></path>
    <path d="M 0 0 L 10 0 L 10 10 L 0 10 Z" fill="#ffffff" transform="matrix(1,0,0,1,236,154)"></path>
    <path d="M 0 0 L 10 0 L 10 10 L 0 10 Z" fill="#ffffff" transform="matrix(1,0,0,1,246,154)"></path>
    <path d="M 0 0 L 10 0 L 10 10 L 0 10 Z" fill="#000000" transform="matrix(1,0,0,1,0,164)"></path>
    <path d="M 0 0 L 10 0 L 10 10 L 0 10 Z" fill="#000000" transform="matrix(1,0,0,1,10,164)"></path>
    <path d="M 0 0 L 11 0 L 11 10 L 0 10 Z" fill="#ffffff" transform="matrix(1,0,0,1,20,164)"></path>
    <path d="M 0 0 L 10 0 L 10 10 L 0 10 Z" fill="#000000" transform="matrix(1,0,0,1,31,164)"></path>
    <path d="M 0 0 L 10 0 L 10 10 L 0 10 Z" fill="#ffffff" transform="matrix(1,0,0,1,41,164)"></path>
    <path d="M 0 0 L 10 0 L 10 10 L 0 10 Z" fill="#ffffff" transform="matrix(1,0,0,1,51,164)"></path>
    <path d="M 0 0 L 11 0 L 11 10 L 0 10 Z" fill="#000000" transform="matrix(1,0,0,1,61,164)"></path>
    <path d="M 0 0 L 10 0 L 10 10 L 0 10 Z" fill="#000000" transform="matrix(1,0,0,1,72,164)"></path>
    <path d="M 0 0 L 10 0 L 10 10 L 0 10 Z" fill="#ffffff" transform="matrix(1,0,0,1,82,164)"></path>
    <path d="M 0 0 L 10 0 L 10 10 L 0 10 Z" fill="#ffffff" transform="matrix(1,0,0,1,92,164)"></path>
    <path d="M 0 0 L 11 0 L 11 10 L 0 10 Z" fill="#000000" transform="matrix(1,0,0,1,102,164)"></path>
    <path d="M 0 0 L 10 0 L 10 10 L 0 10 Z" fill="#ffffff" transform="matrix(1,0,0,1,113,164)"></path>
    <path d="M 0 0 L 10 0 L 10 10 L 0 10 Z" fill="#ffffff" transform="matrix(1,0,0,1,123,164)"></path>
    <path d="M 0 0 L 10 0 L 10 10 L 0 10 Z" fill="#000000" transform="matrix(1,0,0,1,133,164)"></path>
    <path d="M 0 0 L 11 0 L 11 10 L 0 10 Z" fill="#000000" transform="matrix(1,0,0,1,143,164)"></path>
    <path d="M 0 0 L 10 0 L 10 10 L 0 10 Z" fill="#000000" transform="matrix(1,0,0,1,154,164)"></path>
    <path d="M 0 0 L 10 0 L 10 10 L 0 10 Z" fill="#000000" transform="matrix(1,0,0,1,164,164)"></path>
    <path d="M 0 0 L 10 0 L 10 10 L 0 10 Z" fill="#000000" transform="matrix(1,0,0,1,174,164)"></path>
    <path d="M 0 0 L 11 0 L 11 10 L 0 10 Z" fill="#000000" transform="matrix(1,0,0,1,184,164)"></path>
    <path d="M 0 0 L 10 0 L 10 10 L 0 10 Z" fill="#000000" transform="matrix(1,0,0,1,195,164)"></path>
    <path d="M 0 0 L 10 0 L 10 10 L 0 10 Z" fill="#000000" transform="matrix(1,0,0,1,205,164)"></path>
    <path d="M 0 0 L 10 0 L 10 10 L 0 10 Z" fill="#ffffff" transform="matrix(1,0,0,1,215,164)"></path>
    <path d="M 0 0 L 11 0 L 11 10 L 0 10 Z" fill="#ffffff" transform="matrix(1,0,0,1,225,164)"></path>
    <path d="M 0 0 L 10 0 L 10 10 L 0 10 Z" fill="#000000" transform="matrix(1,0,0,1,236,164)"></path>
    <path d="M 0 0 L 10 0 L 10 10 L 0 10 Z" fill="#ffffff" transform="matrix(1,0,0,1,246,164)"></path>
    <path d="M 0 0 L 10 0 L 10 10 L 0 10 Z" fill="#ffffff" transform="matrix(1,0,0,1,0,174)"></path>
    <path d="M 0 0 L 10 0 L 10 10 L 0 10 Z" fill="#ffffff" transform="matrix(1,0,0,1,10,174)"></path>
    <path d="M 0 0 L 11 0 L 11 10 L 0 10 Z" fill="#ffffff" transform="matrix(1,0,0,1,20,174)"></path>
    <path d="M 0 0 L 10 0 L 10 10 L 0 10 Z" fill="#ffffff" transform="matrix(1,0,0,1,31,174)"></path>
    <path d="M 0 0 L 10 0 L 10 10 L 0 10 Z" fill="#ffffff" transform="matrix(1,0,0,1,41,174)"></path>
    <path d="M 0 0 L 10 0 L 10 10 L 0 10 Z" fill="#ffffff" transform="matrix(1,0,0,1,51,174)"></path>
    <path d="M 0 0 L 11 0 L 11 10 L 0 10 Z" fill="#ffffff" transform="matrix(1,0,0,1,61,174)"></path>
    <path d="M 0 0 L 10 0 L 10 10 L 0 10 Z" fill="#ffffff" transform="matrix(1,0,0,1,72,174)"></path>
    <path d="M 0 0 L 10 0 L 10 10 L 0 10 Z" fill="#000000" transform="matrix(1,0,0,1,82,174)"></path>
    <path d="M 0 0 L 10 0 L 10 10 L 0 10 Z" fill="#000000" transform="matrix(1,0,0,1,92,174)"></path>
    <path d="M 0 0 L 11 0 L 11 10 L 0 10 Z" fill="#000000" transform="matrix(1,0,0,1,102,174)"></path>
    <path d="M 0 0 L 10 0 L 10 10 L 0 10 Z" fill="#ffffff" transform="matrix(1,0,0,1,113,174)"></path>
    <path d="M 0 0 L 10 0 L 10 10 L 0 10 Z" fill="#ffffff" transform="matrix(1,0,0,1,123,174)"></path>
    <path d="M 0 0 L 10 0 L 10 10 L 0 10 Z" fill="#000000" transform="matrix(1,0,0,1,133,174)"></path>
    <path d="M 0 0 L 11 0 L 11 10 L 0 10 Z" fill="#ffffff" transform="matrix(1,0,0,1,143,174)"></path>
    <path d="M 0 0 L 10 0 L 10 10 L 0 10 Z" fill="#ffffff" transform="matrix(1,0,0,1,154,174)"></path>
    <path d="M 0 0 L 10 0 L 10 10 L 0 10 Z" fill="#000000" transform="matrix(1,0,0,1,164,174)"></path>
    <path d="M 0 0 L 10 0 L 10 10 L 0 10 Z" fill="#ffffff" transform="matrix(1,0,0,1,174,174)"></path>
    <path d="M 0 0 L 11 0 L 11 10 L 0 10 Z" fill="#ffffff" transform="matrix(1,0,0,1,184,174)"></path>
    <path d="M 0 0 L 10 0 L 10 10 L 0 10 Z" fill="#ffffff" transform="matrix(1,0,0,1,195,174)"></path>
    <path d="M 0 0 L 10 0 L 10 10 L 0 10 Z" fill="#000000" transform="matrix(1,0,0,1,205,174)"></path>
    <path d="M 0 0 L 10 0 L 10 10 L 0 10 Z" fill="#ffffff" transform="matrix(1,0,0,1,215,174)"></path>
    <path d="M 0 0 L 11 0 L 11 10 L 0 10 Z" fill="#ffffff" transform="matrix(1,0,0,1,225,174)"></path>
    <path d="M 0 0 L 10 0 L 10 10 L 0 10 Z" fill="#ffffff" transform="matrix(1,0,0,1,236,174)"></path>
    <path d="M 0 0 L 10 0 L 10 10 L 0 10 Z" fill="#000000" transform="matrix(1,0,0,1,246,174)"></path>
    <path d="M 0 0 L 10 0 L 10 11 L 0 11 Z" fill="#000000" transform="matrix(1,0,0,1,0,184)"></path>
    <path d="M 0 0 L 10 0 L 10 11 L 0 11 Z" fill="#000000" transform="matrix(1,0,0,1,10,184)"></path>
    <path d="M 0 0 L 11 0 L 11 11 L 0 11 Z" fill="#000000" transform="matrix(1,0,0,1,20,184)"></path>
    <path d="M 0 0 L 10 0 L 10 11 L 0 11 Z" fill="#000000" transform="matrix(1,0,0,1,31,184)"></path>
    <path d="M 0 0 L 10 0 L 10 11 L 0 11 Z" fill="#000000" transform="matrix(1,0,0,1,41,184)"></path>
    <path d="M 0 0 L 10 0 L 10 11 L 0 11 Z" fill="#000000" transform="matrix(1,0,0,1,51,184)"></path>
    <path d="M 0 0 L 11 0 L 11 11 L 0 11 Z" fill="#000000" transform="matrix(1,0,0,1,61,184)"></path>
    <path d="M 0 0 L 10 0 L 10 11 L 0 11 Z" fill="#ffffff" transform="matrix(1,0,0,1,72,184)"></path>
    <path d="M 0 0 L 10 0 L 10 11 L 0 11 Z" fill="#ffffff" transform="matrix(1,0,0,1,82,184)"></path>
    <path d="M 0 0 L 10 0 L 10 11 L 0 11 Z" fill="#000000" transform="matrix(1,0,0,1,92,184)"></path>
    <path d="M 0 0 L 11 0 L 11 11 L 0 11 Z" fill="#000000" transform="matrix(1,0,0,1,102,184)"></path>
    <path d="M 0 0 L 10 0 L 10 11 L 0 11 Z" fill="#000000" transform="matrix(1,0,0,1,113,184)"></path>
    <path d="M 0 0 L 10 0 L 10 11 L 0 11 Z" fill="#ffffff" transform="matrix(1,0,0,1,123,184)"></path>
    <path d="M 0 0 L 10 0 L 10 11 L 0 11 Z" fill="#ffffff" transform="matrix(1,0,0,1,133,184)"></path>
    <path d="M 0 0 L 11 0 L 11 11 L 0 11 Z" fill="#ffffff" transform="matrix(1,0,0,1,143,184)"></path>
    <path d="M 0 0 L 10 0 L 10 11 L 0 11 Z" fill="#ffffff" transform="matrix(1,0,0,1,154,184)"></path>
    <path d="M 0 0 L 10 0 L 10 11 L 0 11 Z" fill="#000000" transform="matrix(1,0,0,1,164,184)"></path>
    <path d="M 0 0 L 10 0 L 10 11 L 0 11 Z" fill="#ffffff" transform="matrix(1,0,0,1,174,184)"></path>
    <path d="M 0 0 L 11 0 L 11 11 L 0 11 Z" fill="#000000" transform="matrix(1,0,0,1,184,184)"></path>
    <path d="M 0 0 L 10 0 L 10 11 L 0 11 Z" fill="#ffffff" transform="matrix(1,0,0,1,195,184)"></path>
    <path d="M 0 0 L 10 0 L 10 11 L 0 11 Z" fill="#000000" transform="matrix(1,0,0,1,205,184)"></path>
    <path d="M 0 0 L 10 0 L 10 11 L 0 11 Z" fill="#ffffff" transform="matrix(1,0,0,1,215,184)"></path>
    <path d="M 0 0 L 11 0 L 11 11 L 0 11 Z" fill="#ffffff" transform="matrix(1,0,0,1,225,184)"></path>
    <path d="M 0 0 L 10 0 L 10 11 L 0 11 Z" fill="#ffffff" transform="matrix(1,0,0,1,236,184)"></path>
    <path d="M 0 0 L 10 0 L 10 11 L 0 11 Z" fill="#000000" transform="matrix(1,0,0,1,246,184)"></path>
    <path d="M 0 0 L 10 0 L 10 10 L 0 10 Z" fill="#000000" transform="matrix(1,0,0,1,0,195)"></path>
    <path d="M 0 0 L 10 0 L 10 10 L 0 10 Z" fill="#ffffff" transform="matrix(1,0,0,1,10,195)"></path>
    <path d="M 0 0 L 11 0 L 11 10 L 0 10 Z" fill="#ffffff" transform="matrix(1,0,0,1,20,195)"></path>
    <path d="M 0 0 L 10 0 L 10 10 L 0 10 Z" fill="#ffffff" transform="matrix(1,0,0,1,31,195)"></path>
    <path d="M 0 0 L 10 0 L 10 10 L 0 10 Z" fill="#ffffff" transform="matrix(1,0,0,1,41,195)"></path>
    <path d="M 0 0 L 10 0 L 10 10 L 0 10 Z" fill="#ffffff" transform="matrix(1,0,0,1,51,195)"></path>
    <path d="M 0 0 L 11 0 L 11 10 L 0 10 Z" fill="#000000" transform="matrix(1,0,0,1,61,195)"></path>
    <path d="M 0 0 L 10 0 L 10 10 L 0 10 Z" fill="#ffffff" transform="matrix(1,0,0,1,72,195)"></path>
    <path d="M 0 0 L 10 0 L 10 10 L 0 10 Z" fill="#000000" transform="matrix(1,0,0,1,82,195)"></path>
    <path d="M 0 0 L 10 0 L 10 10 L 0 10 Z" fill="#ffffff" transform="matrix(1,0,0,1,92,195)"></path>
    <path d="M 0 0 L 11 0 L 11 10 L 0 10 Z" fill="#ffffff" transform="matrix(1,0,0,1,102,195)"></path>
    <path d="M 0 0 L 10 0 L 10 10 L 0 10 Z" fill="#ffffff" transform="matrix(1,0,0,1,113,195)"></path>
    <path d="M 0 0 L 10 0 L 10 10 L 0 10 Z" fill="#ffffff" transform="matrix(1,0,0,1,123,195)"></path>
    <path d="M 0 0 L 10 0 L 10 10 L 0 10 Z" fill="#000000" transform="matrix(1,0,0,1,133,195)"></path>
    <path d="M 0 0 L 11 0 L 11 10 L 0 10 Z" fill="#ffffff" transform="matrix(1,0,0,1,143,195)"></path>
    <path d="M 0 0 L 10 0 L 10 10 L 0 10 Z" fill="#000000" transform="matrix(1,0,0,1,154,195)"></path>
    <path d="M 0 0 L 10 0 L 10 10 L 0 10 Z" fill="#000000" transform="matrix(1,0,0,1,164,195)"></path>
    <path d="M 0 0 L 10 0 L 10 10 L 0 10 Z" fill="#ffffff" transform="matrix(1,0,0,1,174,195)"></path>
    <path d="M 0 0 L 11 0 L 11 10 L 0 10 Z" fill="#ffffff" transform="matrix(1,0,0,1,184,195)"></path>
    <path d="M 0 0 L 10 0 L 10 10 L 0 10 Z" fill="#ffffff" transform="matrix(1,0,0,1,195,195)"></path>
    <path d="M 0 0 L 10 0 L 10 10 L 0 10 Z" fill="#000000" transform="matrix(1,0,0,1,205,195)"></path>
    <path d="M 0 0 L 10 0 L 10 10 L 0 10 Z" fill="#ffffff" transform="matrix(1,0,0,1,215,195)"></path>
    <path d="M 0 0 L 11 0 L 11 10 L 0 10 Z" fill="#ffffff" transform="matrix(1,0,0,1,225,195)"></path>
    <path d="M 0 0 L 10 0 L 10 10 L 0 10 Z" fill="#000000" transform="matrix(1,0,0,1,236,195)"></path>
    <path d="M 0 0 L 10 0 L 10 10 L 0 10 Z" fill="#ffffff" transform="matrix(1,0,0,1,246,195)"></path>
    <path d="M 0 0 L 10 0 L 10 10 L 0 10 Z" fill="#000000" transform="matrix(1,0,0,1,0,205)"></path>
    <path d="M 0 0 L 10 0 L 10 10 L 0 10 Z" fill="#ffffff" transform="matrix(1,0,0,1,10,205)"></path>
    <path d="M 0 0 L 11 0 L 11 10 L 0 10 Z" fill="#000000" transform="matrix(1,0,0,1,20,205)"></path>
    <path d="M 0 0 L 10 0 L 10 10 L 0 10 Z" fill="#000000" transform="matrix(1,0,0,1,31,205)"></path>
    <path d="M 0 0 L 10 0 L 10 10 L 0 10 Z" fill="#000000" transform="matrix(1,0,0,1,41,205)"></path>
    <path d="M 0 0 L 10 0 L 10 10 L 0 10 Z" fill="#ffffff" transform="matrix(1,0,0,1,51,205)"></path>
    <path d="M 0 0 L 11 0 L 11 10 L 0 10 Z" fill="#000000" transform="matrix(1,0,0,1,61,205)"></path>
    <path d="M 0 0 L 10 0 L 10 10 L 0 10 Z" fill="#ffffff" transform="matrix(1,0,0,1,72,205)"></path>
    <path d="M 0 0 L 10 0 L 10 10 L 0 10 Z" fill="#ffffff" transform="matrix(1,0,0,1,82,205)"></path>
    <path d="M 0 0 L 10 0 L 10 10 L 0 10 Z" fill="#000000" transform="matrix(1,0,0,1,92,205)"></path>
    <path d="M 0 0 L 11 0 L 11 10 L 0 10 Z" fill="#000000" transform="matrix(1,0,0,1,102,205)"></path>
    <path d="M 0 0 L 10 0 L 10 10 L 0 10 Z" fill="#000000" transform="matrix(1,0,0,1,113,205)"></path>
    <path d="M 0 0 L 10 0 L 10 10 L 0 10 Z" fill="#000000" transform="matrix(1,0,0,1,123,205)"></path>
    <path d="M 0 0 L 10 0 L 10 10 L 0 10 Z" fill="#000000" transform="matrix(1,0,0,1,133,205)"></path>
    <path d="M 0 0 L 11 0 L 11 10 L 0 10 Z" fill="#ffffff" transform="matrix(1,0,0,1,143,205)"></path>
    <path d="M 0 0 L 10 0 L 10 10 L 0 10 Z" fill="#000000" transform="matrix(1,0,0,1,154,205)"></path>
    <path d="M 0 0 L 10 0 L 10 10 L 0 10 Z" fill="#000000" transform="matrix(1,0,0,1,164,205)"></path>
    <path d="M 0 0 L 10 0 L 10 10 L 0 10 Z" fill="#000000" transform="matrix(1,0,0,1,174,205)"></path>
    <path d="M 0 0 L 11 0 L 11 10 L 0 10 Z" fill="#000000" transform="matrix(1,0,0,1,184,205)"></path>
    <path d="M 0 0 L 10 0 L 10 10 L 0 10 Z" fill="#000000" transform="matrix(1,0,0,1,195,205)"></path>
    <path d="M 0 0 L 10 0 L 10 10 L 0 10 Z" fill="#000000" transform="matrix(1,0,0,1,205,205)"></path>
    <path d="M 0 0 L 10 0 L 10 10 L 0 10 Z" fill="#ffffff" transform="matrix(1,0,0,1,215,205)"></path>
    <path d="M 0 0 L 11 0 L 11 10 L 0 10 Z" fill="#ffffff" transform="matrix(1,0,0,1,225,205)"></path>
    <path d="M 0 0 L 10 0 L 10 10 L 0 10 Z" fill="#ffffff" transform="matrix(1,0,0,1,236,205)"></path>
    <path d="M 0 0 L 10 0 L 10 10 L 0 10 Z" fill="#000000" transform="matrix(1,0,0,1,246,205)"></path>
    <path d="M 0 0 L 10 0 L 10 10 L 0 10 Z" fill="#000000" transform="matrix(1,0,0,1,0,215)"></path>
    <path d="M 0 0 L 10 0 L 10 10 L 0 10 Z" fill="#ffffff" transform="matrix(1,0,0,1,10,215)"></path>
    <path d="M 0 0 L 11 0 L 11 10 L 0 10 Z" fill="#000000" transform="matrix(1,0,0,1,20,215)"></path>
    <path d="M 0 0 L 10 0 L 10 10 L 0 10 Z" fill="#000000" transform="matrix(1,0,0,1,31,215)"></path>
    <path d="M 0 0 L 10 0 L 10 10 L 0 10 Z" fill="#000000" transform="matrix(1,0,0,1,41,215)"></path>
    <path d="M 0 0 L 10 0 L 10 10 L 0 10 Z" fill="#ffffff" transform="matrix(1,0,0,1,51,215)"></path>
    <path d="M 0 0 L 11 0 L 11 10 L 0 10 Z" fill="#000000" transform="matrix(1,0,0,1,61,215)"></path>
    <path d="M 0 0 L 10 0 L 10 10 L 0 10 Z" fill="#ffffff" transform="matrix(1,0,0,1,72,215)"></path>
    <path d="M 0 0 L 10 0 L 10 10 L 0 10 Z" fill="#ffffff" transform="matrix(1,0,0,1,82,215)"></path>
    <path d="M 0 0 L 10 0 L 10 10 L 0 10 Z" fill="#000000" transform="matrix(1,0,0,1,92,215)"></path>
    <path d="M 0 0 L 11 0 L 11 10 L 0 10 Z" fill="#000000" transform="matrix(1,0,0,1,102,215)"></path>
    <path d="M 0 0 L 10 0 L 10 10 L 0 10 Z" fill="#ffffff" transform="matrix(1,0,0,1,113,215)"></path>
    <path d="M 0 0 L 10 0 L 10 10 L 0 10 Z" fill="#000000" transform="matrix(1,0,0,1,123,215)"></path>
    <path d="M 0 0 L 10 0 L 10 10 L 0 10 Z" fill="#ffffff" transform="matrix(1,0,0,1,133,215)"></path>
    <path d="M 0 0 L 11 0 L 11 10 L 0 10 Z" fill="#ffffff" transform="matrix(1,0,0,1,143,215)"></path>
    <path d="M 0 0 L 10 0 L 10 10 L 0 10 Z" fill="#000000" transform="matrix(1,0,0,1,154,215)"></path>
    <path d="M 0 0 L 10 0 L 10 10 L 0 10 Z" fill="#ffffff" transform="matrix(1,0,0,1,164,215)"></path>
    <path d="M 0 0 L 10 0 L 10 10 L 0 10 Z" fill="#000000" transform="matrix(1,0,0,1,174,215)"></path>
    <path d="M 0 0 L 11 0 L 11 10 L 0 10 Z" fill="#ffffff" transform="matrix(1,0,0,1,184,215)"></path>
    <path d="M 0 0 L 10 0 L 10 10 L 0 10 Z" fill="#ffffff" transform="matrix(1,0,0,1,195,215)"></path>
    <path d="M 0 0 L 10 0 L 10 10 L 0 10 Z" fill="#000000" transform="matrix(1,0,0,1,205,215)"></path>
    <path d="M 0 0 L 10 0 L 10 10 L 0 10 Z" fill="#ffffff" transform="matrix(1,0,0,1,215,215)"></path>
    <path d="M 0 0 L 11 0 L 11 10 L 0 10 Z" fill="#000000" transform="matrix(1,0,0,1,225,215)"></path>
    <path d="M 0 0 L 10 0 L 10 10 L 0 10 Z" fill="#000000" transform="matrix(1,0,0,1,236,215)"></path>
    <path d="M 0 0 L 10 0 L 10 10 L 0 10 Z" fill="#ffffff" transform="matrix(1,0,0,1,246,215)"></path>
    <path d="M 0 0 L 10 0 L 10 11 L 0 11 Z" fill="#000000" transform="matrix(1,0,0,1,0,225)"></path>
    <path d="M 0 0 L 10 0 L 10 11 L 0 11 Z" fill="#ffffff" transform="matrix(1,0,0,1,10,225)"></path>
    <path d="M 0 0 L 11 0 L 11 11 L 0 11 Z" fill="#000000" transform="matrix(1,0,0,1,20,225)"></path>
    <path d="M 0 0 L 10 0 L 10 11 L 0 11 Z" fill="#000000" transform="matrix(1,0,0,1,31,225)"></path>
    <path d="M 0 0 L 10 0 L 10 11 L 0 11 Z" fill="#000000" transform="matrix(1,0,0,1,41,225)"></path>
    <path d="M 0 0 L 10 0 L 10 11 L 0 11 Z" fill="#ffffff" transform="matrix(1,0,0,1,51,225)"></path>
    <path d="M 0 0 L 11 0 L 11 11 L 0 11 Z" fill="#000000" transform="matrix(1,0,0,1,61,225)"></path>
    <path d="M 0 0 L 10 0 L 10 11 L 0 11 Z" fill="#ffffff" transform="matrix(1,0,0,1,72,225)"></path>
    <path d="M 0 0 L 10 0 L 10 11 L 0 11 Z" fill="#000000" transform="matrix(1,0,0,1,82,225)"></path>
    <path d="M 0 0 L 10 0 L 10 11 L 0 11 Z" fill="#000000" transform="matrix(1,0,0,1,92,225)"></path>
    <path d="M 0 0 L 11 0 L 11 11 L 0 11 Z" fill="#000000" transform="matrix(1,0,0,1,102,225)"></path>
    <path d="M 0 0 L 10 0 L 10 11 L 0 11 Z" fill="#ffffff" transform="matrix(1,0,0,1,113,225)"></path>
    <path d="M 0 0 L 10 0 L 10 11 L 0 11 Z" fill="#000000" transform="matrix(1,0,0,1,123,225)"></path>
    <path d="M 0 0 L 10 0 L 10 11 L 0 11 Z" fill="#000000" transform="matrix(1,0,0,1,133,225)"></path>
    <path d="M 0 0 L 11 0 L 11 11 L 0 11 Z" fill="#000000" transform="matrix(1,0,0,1,143,225)"></path>
    <path d="M 0 0 L 10 0 L 10 11 L 0 11 Z" fill="#000000" transform="matrix(1,0,0,1,154,225)"></path>
    <path d="M 0 0 L 10 0 L 10 11 L 0 11 Z" fill="#000000" transform="matrix(1,0,0,1,164,225)"></path>
    <path d="M 0 0 L 10 0 L 10 11 L 0 11 Z" fill="#ffffff" transform="matrix(1,0,0,1,174,225)"></path>
    <path d="M 0 0 L 11 0 L 11 11 L 0 11 Z" fill="#ffffff" transform="matrix(1,0,0,1,184,225)"></path>
    <path d="M 0 0 L 10 0 L 10 11 L 0 11 Z" fill="#000000" transform="matrix(1,0,0,1,195,225)"></path>
    <path d="M 0 0 L 10 0 L 10 11 L 0 11 Z" fill="#000000" transform="matrix(1,0,0,1,205,225)"></path>
    <path d="M 0 0 L 10 0 L 10 11 L 0 11 Z" fill="#000000" transform="matrix(1,0,0,1,215,225)"></path>
    <path d="M 0 0 L 11 0 L 11 11 L 0 11 Z" fill="#ffffff" transform="matrix(1,0,0,1,225,225)"></path>
    <path d="M 0 0 L 10 0 L 10 11 L 0 11 Z" fill="#000000" transform="matrix(1,0,0,1,236,225)"></path>
    <path d="M 0 0 L 10 0 L 10 11 L 0 11 Z" fill="#000000" transform="matrix(1,0,0,1,246,225)"></path>
    <path d="M 0 0 L 10 0 L 10 10 L 0 10 Z" fill="#000000" transform="matrix(1,0,0,1,0,236)"></path>
    <path d="M 0 0 L 10 0 L 10 10 L 0 10 Z" fill="#ffffff" transform="matrix(1,0,0,1,10,236)"></path>
    <path d="M 0 0 L 11 0 L 11 10 L 0 10 Z" fill="#ffffff" transform="matrix(1,0,0,1,20,236)"></path>
    <path d="M 0 0 L 10 0 L 10 10 L 0 10 Z" fill="#ffffff" transform="matrix(1,0,0,1,31,236)"></path>
    <path d="M 0 0 L 10 0 L 10 10 L 0 10 Z" fill="#ffffff" transform="matrix(1,0,0,1,41,236)"></path>
    <path d="M 0 0 L 10 0 L 10 10 L 0 10 Z" fill="#ffffff" transform="matrix(1,0,0,1,51,236)"></path>
    <path d="M 0 0 L 11 0 L 11 10 L 0 10 Z" fill="#000000" transform="matrix(1,0,0,1,61,236)"></path>
    <path d="M 0 0 L 10 0 L 10 10 L 0 10 Z" fill="#ffffff" transform="matrix(1,0,0,1,72,236)"></path>
    <path d="M 0 0 L 10 0 L 10 10 L 0 10 Z" fill="#000000" transform="matrix(1,0,0,1,82,236)"></path>
    <path d="M 0 0 L 10 0 L 10 10 L 0 10 Z" fill="#ffffff" transform="matrix(1,0,0,1,92,236)"></path>
    <path d="M 0 0 L 11 0 L 11 10 L 0 10 Z" fill="#000000" transform="matrix(1,0,0,1,102,236)"></path>
    <path d="M 0 0 L 10 0 L 10 10 L 0 10 Z" fill="#000000" transform="matrix(1,0,0,1,113,236)"></path>
    <path d="M 0 0 L 10 0 L 10 10 L 0 10 Z" fill="#000000" transform="matrix(1,0,0,1,123,236)"></path>
    <path d="M 0 0 L 10 0 L 10 10 L 0 10 Z" fill="#ffffff" transform="matrix(1,0,0,1,133,236)"></path>
    <path d="M 0 0 L 11 0 L 11 10 L 0 10 Z" fill="#000000" transform="matrix(1,0,0,1,143,236)"></path>
    <path d="M 0 0 L 10 0 L 10 10 L 0 10 Z" fill="#ffffff" transform="matrix(1,0,0,1,154,236)"></path>
    <path d="M 0 0 L 10 0 L 10 10 L 0 10 Z" fill="#000000" transform="matrix(1,0,0,1,164,236)"></path>
    <path d="M 0 0 L 10 0 L 10 10 L 0 10 Z" fill="#000000" transform="matrix(1,0,0,1,174,236)"></path>
    <path d="M 0 0 L 11 0 L 11 10 L 0 10 Z" fill="#ffffff" transform="matrix(1,0,0,1,184,236)"></path>
    <path d="M 0 0 L 10 0 L 10 10 L 0 10 Z" fill="#000000" transform="matrix(1,0,0,1,195,236)"></path>
    <path d="M 0 0 L 10 0 L 10 10 L 0 10 Z" fill="#000000" transform="matrix(1,0,0,1,205,236)"></path>
    <path d="M 0 0 L 10 0 L 10 10 L 0 10 Z" fill="#ffffff" transform="matrix(1,0,0,1,215,236)"></path>
    <path d="M 0 0 L 11 0 L 11 10 L 0 10 Z" fill="#ffffff" transform="matrix(1,0,0,1,225,236)"></path>
    <path d="M 0 0 L 10 0 L 10 10 L 0 10 Z" fill="#ffffff" transform="matrix(1,0,0,1,236,236)"></path>
    <path d="M 0 0 L 10 0 L 10 10 L 0 10 Z" fill="#ffffff" transform="matrix(1,0,0,1,246,236)"></path>
    <path d="M 0 0 L 10 0 L 10 10 L 0 10 Z" fill="#000000" transform="matrix(1,0,0,1,0,246)"></path>
    <path d="M 0 0 L 10 0 L 10 10 L 0 10 Z" fill="#000000" transform="matrix(1,0,0,1,10,246)"></path>
    <path d="M 0 0 L 11 0 L 11 10 L 0 10 Z" fill="#000000" transform="matrix(1,0,0,1,20,246)"></path>
    <path d="M 0 0 L 10 0 L 10 10 L 0 10 Z" fill="#000000" transform="matrix(1,0,0,1,31,246)"></path>
    <path d="M 0 0 L 10 0 L 10 10 L 0 10 Z" fill="#000000" transform="matrix(1,0,0,1,41,246)"></path>
    <path d="M 0 0 L 10 0 L 10 10 L 0 10 Z" fill="#000000" transform="matrix(1,0,0,1,51,246)"></path>
    <path d="M 0 0 L 11 0 L 11 10 L 0 10 Z" fill="#000000" transform="matrix(1,0,0,1,61,246)"></path>
    <path d="M 0 0 L 10 0 L 10 10 L 0 10 Z" fill="#ffffff" transform="matrix(1,0,0,1,72,246)"></path>
    <path d="M 0 0 L 10 0 L 10 10 L 0 10 Z" fill="#000000" transform="matrix(1,0,0,1,82,246)"></path>
    <path d="M 0 0 L 10 0 L 10 10 L 0 10 Z" fill="#000000" transform="matrix(1,0,0,1,92,246)"></path>
    <path d="M 0 0 L 11 0 L 11 10 L 0 10 Z" fill="#ffffff" transform="matrix(1,0,0,1,102,246)"></path>
    <path d="M 0 0 L 10 0 L 10 10 L 0 10 Z" fill="#ffffff" transform="matrix(1,0,0,1,113,246)"></path>
    <path d="M 0 0 L 10 0 L 10 10 L 0 10 Z" fill="#ffffff" transform="matrix(1,0,0,1,123,246)"></path>
    <path d="M 0 0 L 10 0 L 10 10 L 0 10 Z" fill="#000000" transform="matrix(1,0,0,1,133,246)"></path>
    <path d="M 0 0 L 11 0 L 11 10 L 0 10 Z" fill="#000000" transform="matrix(1,0,0,1,143,246)"></path>
    <path d="M 0 0 L 10 0 L 10 10 L 0 10 Z" fill="#ffffff" transform="matrix(1,0,0,1,154,246)"></path>
    <path d="M 0 0 L 10 0 L 10 10 L 0 10 Z" fill="#000000" transform="matrix(1,0,0,1,164,246)"></path>
    <path d="M 0 0 L 10 0 L 10 10 L 0 10 Z" fill="#ffffff" transform="matrix(1,0,0,1,174,246)"></path>
    <path d="M 0 0 L 11 0 L 11 10 L 0 10 Z" fill="#ffffff" transform="matrix(1,0,0,1,184,246)"></path>
    <path d="M 0 0 L 10 0 L 10 10 L 0 10 Z" fill="#ffffff" transform="matrix(1,0,0,1,195,246)"></path>
    <path d="M 0 0 L 10 0 L 10 10 L 0 10 Z" fill="#ffffff" transform="matrix(1,0,0,1,205,246)"></path>
    <path d="M 0 0 L 10 0 L 10 10 L 0 10 Z" fill="#000000" transform="matrix(1,0,0,1,215,246)"></path>
    <path d="M 0 0 L 11 0 L 11 10 L 0 10 Z" fill="#ffffff" transform="matrix(1,0,0,1,225,246)"></path>
    <path d="M 0 0 L 10 0 L 10 10 L 0 10 Z" fill="#ffffff" transform="matrix(1,0,0,1,236,246)"></path>
    <path d="M 0 0 L 10 0 L 10 10 L 0 10 Z" fill="#000000" transform="matrix(1,0,0,1,246,246)"></path>
</svg>
